# xmcd
# 
# Track frame offsets:
#     150
#     14113
#     33720
#     47645
#     62491
#     80328
#     96762
#     118110
#     138539
#     156826
#     172330
#     188540
#     205018
#     224297
#     247837
#     268043
#     286200
#     302726
# 
# Disc length: 4262
# 
# Revision: 2
# Processed by: cddbd v1.5.2PL0 Copyright (c) Steve Scherf et al.
# Submitted via: fre:ac v1.0.31
# 
DISCID=0410a412
DTITLE=Various Artist - Die Ultimative Chart Show - Die erfolgreichsten Singles  - CD1
DYEAR=2013
DGENRE=Pop
TTITLE0=Timbaland ft. OneRepublic - Apologize
TTITLE1=Nelly Furtado - All Good Things (Come To An End)
TTITLE2=Amy Macdonald - This Is The Life
TTITLE3=Shakira - Whenever, Wherever
TTITLE4=Lady Gaga - Poker Face
TTITLE5=Jennifer Lopez - On The Floor
TTITLE6=will.i.am ft. Britney Spears - Scream and Shout
TTITLE7=Lykke Li - I Follow Rivers (The Magician Remix)
TTITLE8=Polarkreis 18 - Allein Allein
TTITLE9=Bob Sinclair presents Goleo VI ft. Gary "Nesta" Pine - Love Generation
TTITLE10=O-Zone - Dragosta Din Tei
TTITLE11=Psy - Gangnam Style
TTITLE12=Culture Beat - Mr. Vain
TTITLE13=U96 - Das Boot
TTITLE14=Haddaway - What Is Love
TTITLE15=Dr. Alban - It's My Life
TTITLE16=Lou Bega - Mambo No. 5
TTITLE17=Inner Circle - Sweat (A La La La La Long)
EXTD=
EXTT0=
EXTT1=
EXTT2=
EXTT3=
EXTT4=
EXTT5=
EXTT6=
EXTT7=
EXTT8=
EXTT9=
EXTT10=
EXTT11=
EXTT12=
EXTT13=
EXTT14=
EXTT15=
EXTT16=
EXTT17=
PLAYORDER=
